Coordinates
version=1
nRows=28
nColumns=33
inDegrees=yes

Units are S.I. units (second, meters, Newtons, ...)
Angles are in degrees.

endheader
time	ground_thorax_rot_x	ground_thorax_rot_y	ground_thorax_rot_z	ground_thorax_tx	ground_thorax_ty	ground_thorax_tz	clav_prot_r	clav_elev_r	scapula_abduction_r	scapula_elevation_r	scapula_upward_rot_r	scapula_winging_r	shoulder_elv_r	plane_of_elev_r	axial_rot_r	elbow_flexion_r	pro_sup_r	wrist_flex_r	wrist_dev_r	clav_prot_l	clav_elev_l	scapula_abduction_l	scapula_elevation_l	scapula_upward_rot_l	scapula_winging_l	shoulder_elv_l	plane_of_elev_l	axial_rot_l	elbow_flexion_l	pro_sup_l	wrist_flex_l	wrist_dev_l	
8.2200	-40.914081	-2.286448	-3.726170	-219.594444	856.234011	-6.086850	13.157733	-45.000000	40.032771	-45.000000	-45.000000	626.710718	1691.944123	150.549896	180.000000	724.987089	61.193759	27.886013	15.987484	15.329735	39.331724	-37.388300	-45.000000	-44.983433	802.053865	-2978.606626	138.405481	164.893997	11.083005	38.873935	8.322338	-22.672425	
8.2300	-40.909645	-2.115029	-3.671281	-220.149212	857.853757	-6.020666	13.175807	-45.000000	40.011809	-45.000000	-45.000000	626.595512	1691.990250	150.506748	180.000000	725.054505	61.158626	27.913998	15.980851	15.395990	39.354032	-37.381199	-45.000000	-44.965800	802.256638	-2978.600824	138.453650	164.322479	11.208825	38.944983	8.219519	-22.705325	
8.2400	-40.909162	-1.944899	-3.613545	-220.624308	859.417356	-5.955806	13.195703	-45.000000	39.976534	-45.000000	-45.000000	626.482048	1692.046302	150.441193	180.000000	725.119707	61.131518	27.942373	15.974909	15.479558	39.364357	-37.378041	-45.000000	-44.951364	802.459013	-2978.587546	138.489543	163.733758	11.306609	38.993366	8.108733	-22.720156	
8.2500	-40.898667	-1.753341	-3.605294	-220.925623	860.858282	-5.891703	13.193190	-45.000000	39.990785	-45.000000	-45.000000	626.413945	1692.115806	150.394478	180.000000	725.210708	61.104615	27.979625	15.952884	15.524146	39.381019	-37.380863	-45.000000	-44.939426	802.575652	-2978.562629	138.523197	163.515505	11.362723	38.960795	8.074938	-22.756466	
8.2600	-40.884251	-1.545568	-3.630680	-221.043903	862.173095	-5.830700	13.174797	-45.000000	40.030708	-45.000000	-45.000000	626.374325	1692.194324	150.342241	180.000000	725.313208	61.092995	28.033552	15.928173	15.562604	39.379184	-37.404148	-45.000000	-44.940978	802.648178	-2978.529410	138.541935	163.515254	11.384172	38.865601	8.072464	-22.790585	
8.2700	-40.867751	-1.325116	-3.683200	-220.958741	863.352528	-5.774780	13.141399	-45.000000	40.084761	-45.000000	-45.000000	626.365572	1692.284129	150.286706	180.000000	725.433221	61.107134	28.104560	15.899118	15.595383	39.371160	-37.449479	-45.000000	-44.941523	802.687587	-2978.490681	138.546967	163.688632	11.377636	38.721109	8.099181	-22.824638	
8.2800	-40.852776	-1.096385	-3.753391	-220.674096	864.407773	-5.725983	13.101851	-45.000000	40.145271	-45.000000	-45.000000	626.374287	1692.379203	150.213998	180.000000	725.556982	61.163127	28.198725	15.876736	15.634430	39.340672	-37.523380	-45.000000	-44.948740	802.721682	-2978.443905	138.530358	163.937336	11.358295	38.553585	8.126046	-22.848003	
8.2900	-40.842810	-0.865612	-3.829911	-220.206022	865.360967	-5.685605	13.063177	-45.000000	40.188095	-45.000000	-45.000000	626.406673	1692.485498	150.127243	180.000000	725.683139	61.272959	28.309431	15.859475	15.676043	39.315587	-37.623264	-45.000000	-44.944246	802.765074	-2978.390317	138.501703	164.155596	11.337610	38.399741	8.149295	-22.866944	
8.3000	-40.838591	-0.635066	-3.909620	-219.572153	866.237125	-5.653306	13.026439	-45.000000	40.223672	-45.000000	-45.000000	626.449887	1692.595548	150.026044	180.000000	725.813599	61.443515	28.438268	15.847811	15.716765	39.289753	-37.738634	-45.000000	-44.923036	802.821109	-2978.320289	138.459923	164.332596	11.332839	38.282033	8.160237	-22.883650	
8.3100	-40.840093	-0.414602	-3.988822	-218.791225	867.061973	-5.627465	13.004310	-45.000000	40.258518	-45.000000	-45.000000	626.505547	1692.714916	149.919354	180.000000	725.958733	61.676272	28.581215	15.835451	15.734629	39.282177	-37.849880	-45.000000	-44.866231	802.879920	-2978.230986	138.416139	164.461468	11.343635	38.221866	8.168205	-22.906422	
8.3200	-40.846608	-0.217911	-4.062603	-217.881837	867.860446	-5.605408	12.995729	-45.000000	40.321760	-45.000000	-45.000000	626.558151	1692.835660	149.811499	180.000000	726.125188	61.968870	28.730354	15.814961	15.729794	39.287675	-37.932897	-45.000000	-44.761442	802.937777	-2978.122488	138.373631	164.552702	11.374494	38.229152	8.169676	-22.935291	
8.3300	-40.855460	-0.048286	-4.138399	-216.860908	868.654215	-5.584362	13.011499	-45.000000	40.440004	-45.000000	-45.000000	626.605898	1692.957978	149.711333	180.000000	726.328618	62.315373	28.884862	15.777616	15.688199	39.317647	-37.996503	-45.000000	-44.597346	802.992569	-2978.021220	138.352337	164.609493	11.420141	38.313048	8.168939	-22.972932	
8.3400	-40.865640	0.098355	-4.217608	-215.742517	869.461387	-5.561286	13.041253	-45.000000	40.619707	-45.000000	-45.000000	626.638979	1693.078874	149.618785	180.000000	726.575718	62.705630	29.043146	15.720527	15.626218	39.364358	-38.041096	-45.000000	-44.360747	803.050864	-2977.936405	138.353698	164.639128	11.483815	38.472395	8.161308	-23.017969	
8.3500	-40.875623	0.234396	-4.309583	-214.536482	870.295623	-5.533496	13.088872	-45.000000	40.852872	-45.000000	-45.000000	626.662496	1693.205842	149.526297	180.000000	726.856176	63.128844	29.209693	15.650501	15.538933	39.423422	-38.087119	-45.000000	-44.055443	803.115668	-2977.878457	138.381641	164.636367	11.554113	38.703866	8.146468	-23.066897	
8.3600	-40.886720	0.368280	-4.410558	-213.248396	871.167460	-5.498086	13.138366	-45.000000	41.107349	-45.000000	-45.000000	626.682265	1693.345772	149.427244	180.000000	727.152801	63.570926	29.371707	15.569581	15.449391	39.498947	-38.135576	-45.000000	-43.680079	803.193638	-2977.839224	138.428129	164.586010	11.630204	38.998765	8.126781	-23.120807	
8.3700	-40.899286	0.513511	-4.525883	-211.879812	872.084734	-5.452350	13.187358	-45.000000	41.365870	-45.000000	-45.000000	626.704095	1693.503733	149.311357	180.000000	727.449279	64.018903	29.531588	15.486163	15.354852	39.584832	-38.209474	-45.000000	-43.255235	803.286525	-2977.815895	138.492345	164.480619	11.705380	39.347760	8.098396	-23.174955	
8.3800	-40.915084	0.669446	-4.644272	-210.430028	873.054336	-5.393156	13.227542	-45.000000	41.598717	-45.000000	-45.000000	626.726957	1693.685332	149.173972	180.000000	727.736197	64.459155	29.678933	15.401680	15.275663	39.681988	-38.301536	-45.000000	-42.796613	803.399924	-2977.787379	138.558753	164.326317	11.786319	39.739438	8.059561	-23.229289	
8.3900	-40.933929	0.835361	-4.764090	-208.896556	874.082024	-5.318137	13.257070	-45.000000	41.807098	-45.000000	-45.000000	626.748206	1693.891077	149.013666	180.000000	728.012852	64.881992	29.815280	15.317776	15.202921	39.783057	-38.413072	-45.000000	-42.320459	803.530819	-2977.747218	138.623012	164.141965	11.870723	40.166729	8.006756	-23.279948	
8.4000	-40.956354	1.006533	-4.881784	-207.276666	875.172279	-5.226078	13.279390	-45.000000	41.988649	-45.000000	-45.000000	626.761745	1694.122344	148.828185	180.000000	728.286480	65.280815	29.931879	15.228487	15.146333	39.890656	-38.538252	-45.000000	-41.830887	803.684986	-2977.694257	138.677421	163.943746	11.962996	40.626580	7.940316	-23.327457	
8.4100	-40.981625	1.181338	-4.995050	-205.567488	876.327212	-5.117838	13.305035	-45.000000	42.163982	-45.000000	-45.000000	626.759524	1694.370666	148.619933	180.000000	728.562176	65.657285	30.026176	15.127731	15.111815	40.005443	-38.697018	-45.000000	-41.357388	803.870038	-2977.635719	138.717228	163.745952	12.060739	41.125765	7.854881	-23.365841	
8.4200	-41.009345	1.359024	-5.107243	-203.766928	877.546228	-4.995812	13.320075	-45.000000	42.335323	-45.000000	-45.000000	626.748859	1694.643145	148.396189	180.000000	728.851579	66.008581	30.111353	15.020807	15.081041	40.120693	-38.872894	-45.000000	-40.875858	804.068445	-2977.570631	138.755570	163.567570	12.165059	41.663807	7.755066	-23.400719	
8.4300	-41.040017	1.541200	-5.215803	-201.873235	878.825515	-4.863673	13.330627	-45.000000	42.503449	-45.000000	-45.000000	626.732205	1694.937149	148.156946	180.000000	729.147897	66.334566	30.182614	14.906845	15.059222	40.241074	-39.067446	-45.000000	-40.392444	804.283912	-2977.496791	138.782314	163.408601	12.269710	42.240728	7.642962	-23.429324	
8.4400	-41.074288	1.725911	-5.317048	-199.885097	880.158506	-4.725308	13.343682	-45.000000	42.669047	-45.000000	-44.999999	626.707173	1695.250270	147.901111	180.000000	729.451954	66.634439	30.236921	14.784784	15.048710	40.369204	-39.280755	-45.000000	-39.909137	804.518323	-2977.416218	138.795959	163.272661	12.374163	42.854518	7.520567	-23.451848	
8.4500	-41.112454	1.914506	-5.405925	-197.801265	881.536502	-4.584133	13.371084	-45.000000	42.828875	-45.000000	-44.999998	626.672138	1695.577014	147.623995	180.000000	729.752628	66.910110	30.262814	14.651291	15.062360	40.510980	-39.523832	-45.000000	-39.444902	804.783015	-2977.327884	138.781692	163.158682	12.472848	43.504517	7.389827	-23.465324	
8.4600	-41.153686	2.101741	-5.481643	-195.620279	882.949665	-4.442557	13.389621	-45.000000	42.987889	-45.000000	-44.999997	626.630481	1695.922540	147.334536	180.000000	730.062699	67.155013	30.273228	14.511602	15.073374	40.655074	-39.775946	-45.000000	-38.966552	805.056113	-2977.235152	138.763638	163.075206	12.568752	44.178067	7.256613	-23.477227	
8.4700	-41.197661	2.284124	-5.538687	-193.340346	884.387311	-4.302226	13.408604	-45.000000	43.142557	-45.000000	-44.999995	626.581774	1696.286920	147.033240	180.000000	730.377731	67.364193	30.262961	14.364843	15.083506	40.802652	-40.034923	-45.000000	-38.477535	805.340202	-2977.136636	138.736067	163.017714	12.660987	44.859795	7.122991	-23.487024	
8.4800	-41.243241	2.458316	-5.574509	-190.959370	885.838082	-4.164379	13.414744	-45.000000	43.293176	-45.000000	-44.999991	626.526583	1696.670752	146.723498	180.000000	730.700832	67.532375	30.235957	14.213950	15.080944	40.946372	-40.295049	-45.000000	-37.966785	805.623078	-2977.035466	138.713096	162.989832	12.749601	45.531494	6.992737	-23.498089	
8.4900	-41.288254	2.619780	-5.587331	-188.475430	887.289624	-4.030149	13.407317	-45.000000	43.437966	-45.000000	-44.999984	626.465360	1697.074245	146.405450	180.000000	731.030018	67.654917	30.190758	14.059293	15.056516	41.082470	-40.550181	-45.000000	-37.429203	805.899554	-2976.931336	138.695937	162.991350	12.833538	46.172226	6.869518	-23.511937	
